<svg width="74" height="70" viewBox="0 0 74 70" fill="none" xmlns="http://www.w3.org/2000/svg">
<ellipse cx="37.3757" cy="34.9511" rx="34.3757" ry="34.9511" fill="#F68D55"/>
<path d="M36.9997 14.5735L57.9748 25.7519H16.0246L36.9997 14.5735ZM36.9997 13.4895C36.8244 13.4895 36.6492 13.5321 36.4898 13.6167L15.5147 24.7951C15.0757 25.0292 14.8524 25.5318 14.9728 26.0146C15.0934 26.4973 15.527 26.8359 16.0246 26.8359H57.9748C58.4723 26.8359 58.9059 26.4973 59.0266 26.0146C59.1473 25.5318 58.9236 25.0292 58.4846 24.7951L37.5095 13.6167C37.3502 13.5321 37.1749 13.4895 36.9997 13.4895Z" fill="white"/>
<path d="M16.0254 29.0835H57.9756" stroke="white" stroke-width="1.08398" stroke-miterlimit="10" stroke-linecap="round" stroke-linejoin="round"/>
<path d="M17.7949 48.0818H56.2041" stroke="white" stroke-width="1.08398" stroke-miterlimit="10" stroke-linecap="round" stroke-linejoin="round"/>
<path d="M16.043 50.864H57.9932" stroke="white" stroke-width="1.08398" stroke-miterlimit="10" stroke-linecap="round" stroke-linejoin="round"/>
<path d="M48.5615 35.0005C48.5615 33.953 48.5615 32.9677 48.5615 31.8945C47.9473 31.8945 47.2969 31.8945 46.6826 31.8945" stroke="white" stroke-width="1.08398" stroke-miterlimit="10" stroke-linecap="round" stroke-linejoin="round"/>
<path d="M48.5615 36.4548C48.5615 36.3367 48.5615 35.1165 48.5615 34.9998" stroke="white" stroke-width="1.08398" stroke-miterlimit="10" stroke-linejoin="round"/>
<path d="M53.0004 37.2561C52.9654 40.439 53.0781 42.2287 52.9697 45.4084C51.4883 45.4084 50.043 45.4084 48.5615 45.4084C48.5615 42.4455 48.5615 40.8864 48.5615 37.9361" stroke="white" stroke-width="1.08398" stroke-miterlimit="10" stroke-linecap="round" stroke-linejoin="round"/>
<path d="M53.0056 34.3428C53.0056 34.4598 53.0049 35.2414 53.0049 35.3639" stroke="white" stroke-width="1.04785" stroke-miterlimit="10" stroke-linejoin="round"/>
<path d="M54.8632 31.8945C54.2341 31.8945 53.6199 31.8945 53.0056 31.8945C53.0056 32.7827 53.0056 33.5035 53.0049 34.3429" stroke="white" stroke-width="1.04785" stroke-miterlimit="10" stroke-linecap="round" stroke-linejoin="round"/>
<path d="M23.2355 35.0272C23.2337 34.4032 23.234 34.0611 23.2373 33.4844" stroke="white" stroke-width="1.08398" stroke-miterlimit="10" stroke-linecap="round" stroke-linejoin="round"/>
<path d="M23.2372 35.4959C23.2364 35.3741 23.2357 35.1566 23.2354 35.0269" stroke="white" stroke-width="1.08398" stroke-miterlimit="10" stroke-linejoin="round"/>
<path d="M23.2324 45.4444C23.2324 42.3731 23.2324 40.3331 23.2353 37.2488" stroke="white" stroke-width="1.08398" stroke-miterlimit="10" stroke-linecap="round" stroke-linejoin="round"/>
<path d="M21.1754 37.8291C21.1729 40.6702 21.1729 42.59 21.1729 45.4445" stroke="white" stroke-width="0.975586" stroke-miterlimit="10" stroke-linecap="round" stroke-linejoin="round"/>
<path d="M21.1758 35.2903C21.1761 35.5454 21.1765 35.7716 21.1772 36.0263" stroke="white" stroke-width="0.975586" stroke-miterlimit="10" stroke-linejoin="round"/>
<path d="M21.1777 33.4844C21.1748 34.207 21.1741 34.5684 21.1755 35.2903" stroke="white" stroke-width="0.975586" stroke-miterlimit="10" stroke-linecap="round" stroke-linejoin="round"/>
<path d="M25.2585 34.5951C25.2571 34.1098 25.2578 33.9436 25.2607 33.4844" stroke="white" stroke-width="1.08398" stroke-miterlimit="10" stroke-linecap="round" stroke-linejoin="round"/>
<path d="M25.2589 35.1087C25.2582 34.9511 25.2585 34.7629 25.2578 34.5952" stroke="white" stroke-width="1.08398" stroke-miterlimit="10" stroke-linejoin="round"/>
<path d="M25.2559 45.4443C25.2559 42.2646 25.2559 39.9843 25.2588 36.7966" stroke="white" stroke-width="1.08398" stroke-miterlimit="10" stroke-linecap="round" stroke-linejoin="round"/>
<path d="M19.041 31.6777H27.3516" stroke="white" stroke-width="1.08398" stroke-miterlimit="10" stroke-linecap="round" stroke-linejoin="round"/>
<path d="M66.5914 38.5479C66.711 38.5479 66.8079 38.451 66.8079 38.3314C66.8079 38.2119 66.711 38.115 66.5914 38.115C66.4719 38.115 66.375 38.2119 66.375 38.3314C66.375 38.451 66.4719 38.5479 66.5914 38.5479Z" fill="white" stroke="white" stroke-width="0.180664" stroke-miterlimit="10" stroke-linecap="round" stroke-linejoin="round"/>
<path d="M38.5339 35.9967C36.2377 35.8178 36.0928 35.6729 35.9139 33.3767C35.7351 35.6729 35.5902 35.8178 33.2939 35.9967C35.5902 36.1756 35.7351 36.3204 35.9139 38.6167C36.0928 36.3204 36.2377 36.1756 38.5339 35.9967Z" fill="white"/>
<path d="M38.5339 35.9967C36.2377 35.8178 36.0928 35.6729 35.9139 33.3767C35.7351 35.6729 35.5902 35.8178 33.2939 35.9967C35.5902 36.1756 35.7351 36.3204 35.9139 38.6167C36.0928 36.3204 36.2377 36.1756 38.5339 35.9967Z" stroke="white" stroke-width="0.180664" stroke-miterlimit="10" stroke-linecap="round" stroke-linejoin="round"/>
<path d="M40.7073 33.7526C39.5908 33.6655 39.5203 33.595 39.4332 32.4785C39.3461 33.595 39.2757 33.6655 38.1592 33.7526C39.2757 33.8396 39.3461 33.9101 39.4332 35.0266C39.5203 33.9101 39.5908 33.8396 40.7073 33.7526Z" fill="white"/>
<path d="M40.7073 33.7526C39.5908 33.6655 39.5203 33.595 39.4332 32.4785C39.3461 33.595 39.2757 33.6655 38.1592 33.7526C39.2757 33.8396 39.3461 33.9101 39.4332 35.0266C39.5203 33.9101 39.5908 33.8396 40.7073 33.7526Z" stroke="white" stroke-width="0.180664" stroke-miterlimit="10" stroke-linecap="round" stroke-linejoin="round"/>
<path d="M63.8203 39.2296C64.4479 39.0638 65.1283 38.8607 65.8676 38.6172Z" fill="white"/>
<path d="M63.8203 39.2296C64.4479 39.0638 65.1283 38.8607 65.8676 38.6172" stroke="white" stroke-width="0.289062" stroke-miterlimit="10" stroke-linecap="round" stroke-linejoin="round"/>
<path d="M48.959 36.1645C50.6323 35.6756 55.2667 33.9083 56.097 36.2472C56.5574 37.6517 57.0311 38.9315 58.5913 39.3604C58.9945 39.4768 59.4285 39.5292 59.8476 39.5465C60.0973 39.5595 60.3791 39.5534 60.6295 39.5418C60.7809 39.5389 61.0031 39.5183 61.1549 39.5082C62.0391 39.4265 62.9081 39.2679 63.7839 39.0901L63.8576 39.3695C62.8694 39.6885 61.8414 39.9371 60.804 40.0567C59.3454 40.2124 57.7136 40.0842 56.6845 38.9023C56.0667 38.2031 55.7693 37.303 55.5102 36.4351C55.0958 35.0772 52.1701 35.6156 51.1074 35.8483C50.4119 36.0001 49.7228 36.1948 49.0511 36.4384C49.0518 36.4384 48.959 36.1645 48.959 36.1645Z" fill="white"/>
<path d="M44.3164 38.1887C45.2461 37.8158 46.2257 37.4039 47.2569 36.9526C47.2569 36.9526 47.9792 36.648 49.0054 36.3015" fill="white"/>
<path d="M44.3164 38.1887C45.2461 37.8158 46.2257 37.4039 47.2569 36.9526C47.2569 36.9526 47.9792 36.648 49.0054 36.3015" stroke="white" stroke-width="0.289062" stroke-miterlimit="10"/>
<path d="M18.8164 36.7499C20.7596 35.9246 27.4026 33.1822 28.6984 35.6601C28.8104 35.8679 28.8707 36.0905 28.9022 36.317C28.9173 36.4153 28.9358 36.5494 28.9542 36.6473C29.1775 38.0713 29.76 39.4891 31.1171 40.1399C33.7085 41.4186 38.1345 40.12 40.7924 39.285C41.9591 38.9099 43.1125 38.4883 44.2615 38.055L44.3692 38.3235C43.8012 38.5623 43.2306 38.7972 42.6558 39.0194C40.3483 39.909 37.9914 40.7202 35.5383 41.1155C34.9172 41.2101 34.291 41.2752 33.6601 41.2792C30.3887 41.3305 28.5401 39.6423 28.2366 36.3944C28.0856 34.4425 24.5272 35.3028 23.2911 35.6143C21.8089 35.9933 20.3629 36.4901 18.923 37.0187C18.9234 37.0184 18.8164 36.7499 18.8164 36.7499Z" fill="white"/>
<path d="M10.4492 40.8113C10.4492 40.8113 14.5622 38.6011 18.8703 36.884Z" fill="white"/>
<path d="M10.4492 40.8113C10.4492 40.8113 14.5622 38.6011 18.8703 36.884" stroke="white" stroke-width="0.289062" stroke-miterlimit="10" stroke-linecap="round" stroke-linejoin="round"/>
</svg>
